<svg xmlns="http://www.w3.org/2000/svg" viewBox="0 0 163.87 164.78"><defs><style>.cls-1{fill:#ed8b71;}.cls-2{fill:#555c6c;}</style></defs><g id="Layer_2" data-name="Layer 2"><g id="Layer_1-2" data-name="Layer 1"><path class="cls-1" d="M82.8,27.7,27.42,82.8C32,87,36.73,91.14,41.18,95.53c5.91,5.81,6.22,12.63,1.09,17.56-5,4.75-11.54,4.25-17.24-1.39Q14.73,101.5,4.5,91.22c-6-6.06-6-12.18.09-18.32Q38.8,38.57,73.12,4.32c5.8-5.79,12.07-5.76,17.93.06q21.61,21.5,43.13,43.11c5.25,5.27,5.64,12.12,1.1,16.89-4.7,5-11.68,4.79-17.22-.67-10.56-10.41-21-20.93-31.47-31.45C85.2,30.86,84.05,29.22,82.8,27.7Z"/><path class="cls-2" d="M83,136.5c-1.65.63-2.4-.69-3.33-1.57-4-3.76-8-7.51-11.87-11.36-3.54-3.49-12.64-4.36-15.78-1.39-3.86,3.63-4.39,12.7-.64,16.58q11.1,11.51,22.56,22.65a11.08,11.08,0,0,0,15.75.17c3.06-2.79,5.83-5.91,8.73-8.88l12.15-12.27c13.28-12.2,25.65-25.32,38.41-38,3.89-3.87,7.87-7.67,11.63-11.67,4.23-4.5,4.32-11.47.43-15.38-3.64-3.65-11.59-3.53-15.92-.33-6.11,4.52-10.89,10.37-16.35,15.53C118.22,100.48,109,111.8,98.13,121.4h0L83,136.5m-3-13.29s0,0,0-.07S80,123.19,80,123.21Z"/></g></g></svg>